<svg id="Capa_1" data-name="Capa 1" xmlns="http://www.w3.org/2000/svg" viewBox="0 0 307 339"><defs><style>.cls-1{fill:#db4645;}.cls-2{fill:#816c5f;}.cls-3{fill:#333230;}.cls-4{fill:#fff;}.cls-5{fill:#bd4040;}.cls-6{fill:#bcb8ac;}.cls-7{fill:#828078;}.cls-8{fill:#010101;}.cls-9{fill:#f5333f;}</style></defs><title>logo</title><path class="cls-1" d="M187,93.41s15.46,14.55,11.82,25.77-38.5,11.52-38.5,11.52-6.37-7.89-4.25-14.56,4.86-21.22,6.67-22.73S187,93.41,187,93.41Z"/><path class="cls-2" d="M228.18,51.57c-7.88-16.22-31.23-41.23-52-45.63s-48.82,10-48.82,10L110.24,11.4C88.42,11.14,71.24,26,66,34.89s-4.45,26.88-4.45,34.16,0,6.67-2.83,22,1.22,12.73,1.22,12.73L43.55,157.38s2.83,17.18,10.1,24.05S87,186.89,87,186.89s5.82,8.17,12.83,17.68c-3.39-8.55-7.57-19-7.57-19,0-.3,18.09-21.12,22.43-23.75a31.11,31.11,0,0,1,8.49-3.53s7.28,26.57-3.94,43.65c-5.41,8.24-9.1,11.81-11.48,13.25,7.48,9.85,14.43,18.47,15.82,18.38,3.24-.2,23.25-8.08,33-16.57s37.39-54.17,41.43-56,25.27-7.27,35.78-27.28S236.06,67.79,228.18,51.57Zm-47.8,74.88c-17.79,9.3-21.63-3.84-21.63-3.84s3.24-22.43,6.88-27.89,12.12-7.88,13.94-7.88,11.32,9.7,11.32,9.7S198.17,117.15,180.38,126.45Z"/><path class="cls-2" d="M228.18,51.57c-7.88-16.22-31.23-41.23-52-45.63s-48.82,10-48.82,10L110.24,11.4C88.42,11.14,71.24,26,66,34.89s-4.45,26.88-4.45,34.16,0,6.67-2.83,22,1.22,12.73,1.22,12.73L43.55,157.38s2.83,17.18,10.1,24.05S87,186.89,87,186.89s5.82,8.17,12.83,17.68c-3.39-8.55-7.57-19-7.57-19,0-.3,18.09-21.12,22.43-23.75a31.11,31.11,0,0,1,8.49-3.53s7.28,26.57-3.94,43.65c-5.41,8.24-9.1,11.81-11.48,13.25,7.48,9.85,14.43,18.47,15.82,18.38,3.24-.2,23.25-8.08,33-16.57s37.39-54.17,41.43-56,25.27-7.27,35.78-27.28S236.06,67.79,228.18,51.57Zm-47.8,74.88c-17.79,9.3-21.63-3.84-21.63-3.84s3.24-22.43,6.88-27.89,12.12-7.88,13.94-7.88,11.32,9.7,11.32,9.7S198.17,117.15,180.38,126.45Z"/><path class="cls-3" d="M84.52,96s7,7,14.68-1.4a91.88,91.88,0,0,1,18.7-15.82A47.17,47.17,0,0,0,98.12,91c-10.61,10.91-13,2.12-14,4.35a1.85,1.85,0,0,0,.46,2.06A6.32,6.32,0,0,1,84.52,96Z"/><path class="cls-3" d="M109.68,89.5c-4.78,3.72-7.51,8.76-5.42,11.14,0,0,8.87-5.53,10.91-9.36S114.45,85.79,109.68,89.5Z"/><path class="cls-3" d="M99.23,124.23s-2.32-9.37-.35-16.58a22.41,22.41,0,0,1-9.18-3.28A11.08,11.08,0,0,0,95,109.78c-.41,12.73,4.54,18.39,6.16,19.4a33.84,33.84,0,0,1-.23-5.1,3.62,3.62,0,0,0,.13.35c2.12,4.75,5.73-18.24,16.57-28.19.85-.78,1.73-1.57,2.57-2.32C110.84,99.33,100.71,110.15,99.23,124.23Z"/><path class="cls-3" d="M127.32,86.13a27.2,27.2,0,0,1,4.07-9.92c-4.29,2.84-9,7.24-10.46,13.33,0,0,6.8-1.59,10.13.58a15.44,15.44,0,0,0-2.61.39,20.53,20.53,0,0,1,7.56.77S130.36,85.52,127.32,86.13Z"/><path class="cls-4" d="M115.17,91.28c2-3.82-.72-5.49-5.49-1.78s-7.51,8.76-5.42,11.14C104.26,100.64,113.13,95.11,115.17,91.28Z"/><path class="cls-1" d="M246.57,108.38C248,92.71,245.13,73.67,237.81,56c6.32-.37,16.45-.34,20.39,3.2C259.34,67.19,255.29,85.57,246.57,108.38Z"/><path class="cls-1" d="M102.28,242.21c-21.35-31.08-26.66-46.66-28-52.28-2.37-.17-4.43-.46-6-.72-1.15.12-2.32.23-3.55.3l-.7-.31a444.73,444.73,0,0,0,24.27,53.07Z"/><path class="cls-1" d="M28.33,110.68l.52.23,10.75,4.17,6.17,26.66a71.14,71.14,0,0,1,1.81-9.94c-2.38-10.07-5.86-26.43-6.26-37.48C33.07,100.3,29.7,106.56,28.33,110.68Z"/><path class="cls-1" d="M228.56,148.09A56.75,56.75,0,0,1,206.11,162c-9.78,19.6-43,62.32-81.3,80.09l30.58-.13C186.32,216.87,211.07,181.41,228.56,148.09Z"/><path class="cls-5" d="M262.74,39.89S275.93,45.5,279.11,51c-.25,17.77-29.22,114.42-108.77,191l-15,.07c30.93-25.11,55.68-60.57,73.17-93.89a62.64,62.64,0,0,0,17.66-36.49c.14-1.06.25-2.13.35-3.22,8.72-22.81,12.77-41.19,11.63-49.23-3.94-3.54-14.07-3.57-20.39-3.2a109.93,109.93,0,0,0-12.38-22.38c11.32-1.06,44.16-3.22,57.47,5.87C270.32,37.47,262.74,39.89,262.74,39.89Z"/><path class="cls-5" d="M83.69,189.72a49.15,49.15,0,0,1-9.39.21c1.32,5.62,6.63,21.2,28,52.28l19.43-.09C102.79,232,87.67,199,83.69,189.72Z"/><path class="cls-5" d="M25.29,101.08a6.89,6.89,0,0,0,3,9.6c1.37-4.12,4.74-10.38,13-16.36.4,11.05,3.88,27.41,6.26,37.48a189,189,0,0,1,9-26.17s-9.19-3-2.12-19.6a43.09,43.09,0,0,1,4.78-8.28c-.24-.44-.48-.9-.71-1.36C49.8,80.19,32.32,89,25.29,101.08Z"/><path class="cls-6" d="M79.06,152.83c-1.07,6.87-7.7,15-13.28,16.17-3.08-3.94-1.67-10.77.76-13-4.35,2.83-7.13,7.18-6.52,12.08s4.77,14,14.8,15.73a32.81,32.81,0,0,0,7.84-3.1,21.12,21.12,0,0,0,8.62-8.84c-4.72,1.7-11.74,5.7-9.69-5.11C83.5,156.8,81.11,153.73,79.06,152.83Z"/><path class="cls-7" d="M56.81,163.55A17.26,17.26,0,0,1,58.35,159a3.78,3.78,0,0,1-3.15.54c.18,1.12.25,1.85.25,1.85s-3.72-7.73-8.8-8c7.73,3.11,7.28,17.82,7.28,17.82A6.38,6.38,0,0,1,49.46,168c1.32,4.23,4.5,7.78,7.67,10.44a7.28,7.28,0,0,0,2.33.62,24.59,24.59,0,0,1-3.86-16.6Z"/><path class="cls-7" d="M74.32,180.49A11.45,11.45,0,0,1,64,171.63s.61,2,4.7,3c7.09-3.78,8.81-11.31,8.94-17.29-2.48,5.51-7.5,10.7-11.87,11.63-3.08-3.94-1.67-10.77.76-13-4.35,2.83-7.13,7.18-6.52,12.08s4.77,14,14.8,15.73a32.81,32.81,0,0,0,7.84-3.1l.26-.16A38.24,38.24,0,0,1,74.32,180.49Z"/><path class="cls-3" d="M58.4,120.58,57.88,122c-.09.22-.16.44-.25.67L56.78,125q-.3.84-.57,1.68c-.05.14-.1.28-.14.42q-.26.77-.48,1.53l0,.12q-.24.79-.45,1.59c0,.13-.07.27-.11.41-.12.45-.23.9-.34,1.34a1.89,1.89,0,0,0,0,.23c-.12.5-.23,1-.34,1.47,0,.13-.05.27-.08.4l-.24,1.2a2.56,2.56,0,0,1-.05.27c-.08.46-.16.91-.23,1.35l-.06.37c-.06.36-.11.72-.16,1.07,0,.09,0,.19,0,.28-.06.42-.11.84-.16,1.24l0,.29c0,.34-.07.67-.1,1l0,.25c0,.38-.06.75-.09,1.1,0,.08,0,.15,0,.22,0,.31,0,.61,0,.91a1.09,1.09,0,0,0,0,.18c0,.34,0,.67-.05,1V145c0,.3,0,.59,0,.86v.1c0,.6,0,1.14,0,1.61,2.38,3.93,7.29,1.7,10.55-7.5,4.1-11.52,19.71-28.8,9.71-30.62A14.69,14.69,0,0,0,61.61,112a2,2,0,0,0-.08.22c-.12.3-.24.6-.36.93s-.16.4-.23.6-.19.5-.3.77-.16.45-.25.67-.22.58-.33.89l-.27.73c-.12.32-.25.65-.37,1l-.3.8q-.19.56-.42,1.14C58.6,120,58.51,120.3,58.4,120.58Z"/><path class="cls-3" d="M105.58,55.5a1.22,1.22,0,0,0,1,1.35,27.66,27.66,0,0,1,7.18,2.83,1.22,1.22,0,0,1-.39,2.28c-.8.12-1.71.29-2.68.5a53.41,53.41,0,0,1,9.25-.13h0a74.35,74.35,0,0,1,9.57-19.59c.09-.13.18-.27.28-.4.42-.59.85-1.16,1.29-1.72l.46-.6c.4-.5.81-1,1.22-1.46.2-.23.4-.47.6-.69.38-.43.76-.84,1.15-1.24s.48-.5.72-.74.73-.72,1.09-1.06l.84-.75c.34-.3.68-.6,1-.88s.62-.5.94-.74.64-.5,1-.73.71-.49,1.06-.72.58-.4.87-.58.84-.49,1.26-.72l.7-.4c.66-.34,1.32-.65,2-.93a1.79,1.79,0,0,1,2,2.81c-.53.63-1.05,1.29-1.55,2v0c-.5.68-1,1.38-1.44,2.09-.94,3-1.23,7.07,1.89,10.24,5.84,5.9,28.28-14.41,45.4-11s31.53,28.88,32.9,59.5-25.62,46.24-43.2,44.87c7.91,5.06,23,3.35,32.08-4.18a1.37,1.37,0,0,1,2.12,1.62c-2.93,6.28-8.67,12.25-15.85,16.27h0l1.55-.34.24-.06,1.46-.37.28-.07,1.46-.41.13,0c.76-.23,1.51-.48,2.26-.74l.16-.05c.75-.27,1.49-.55,2.22-.85l.1,0h0l1.21-.52.38-.17.1,0,1.09-.52.5-.25.08,0,1-.54.6-.34c.33-.18.66-.37,1-.57l.13-.08.45-.28c.54-.35,1.07-.7,1.6-1.07h0c.52-.37,1-.75,1.55-1.15l.68-.54.74-.64.68-.61c.24-.21.47-.44.7-.66s.17-.18.26-.26l.42-.42.65-.68.45-.52c.08-.09.16-.17.23-.26s.4-.45.59-.68l.17-.22.59-.75c.15-.2.3-.38.44-.58s.36-.52.54-.78.39-.54.57-.82L228,135l.57-.95a1.74,1.74,0,0,0,.11-.18l.42-.76c.2-.37.4-.74.59-1.11l.39-.82c.08-.16.15-.32.22-.48s.21-.46.32-.7.24-.55.35-.84.15-.38.22-.57l.3-.76c.09-.26.19-.52.29-.78.21-.61.4-1.22.59-1.85,0-.13.09-.25.12-.38.16-.54.3-1.11.45-1.67.05-.22.12-.44.17-.66s.11-.51.17-.76c.12-.56.25-1.13.36-1.71.06-.32.11-.64.17-1,.09-.54.18-1.08.26-1.64,0-.34.1-.69.14-1,.07-.56.14-1.13.19-1.71,0-.36.08-.71.11-1.07,0-.63.09-1.28.13-1.94,0-.31,0-.63,0-1,.05-1,.07-2,.08-3,.2-35.16-12.63-59.49-24.08-73.74-10.53-13.12-24.78-17-37.86-14.8a1.21,1.21,0,0,1-1-2.11,26,26,0,0,1,4.94-3.24,1.21,1.21,0,0,0-.28-2.26c-6.94-1.63-23.56-4.31-37,3.08C122.69,23.78,106.86,45.52,105.58,55.5Z"/><path class="cls-3" d="M65.53,57.74c0,.49,0,1,0,1.43a.86.86,0,0,1,0,.16c0,1,.14,1.9.25,2.76a32.72,32.72,0,0,0,1.5,6.51c2.22-2.13,4.44-4,6.45-5.61a1,1,0,0,1,1.61.81,1,1,0,0,1,0,.17.45.45,0,0,1,0,.11,1.05,1.05,0,0,1-.15.3l-.52.69a10.76,10.76,0,0,1,2.93-.47c6.17-.1,5.06,13.24,9.91,16.17,4,2.45,7.33-10.61,17.08-16.45-.59.24-1.19.49-1.79.77l-.07,0a28.93,28.93,0,0,0-5.25,3.16l-.37.3c-.4.32-.79.65-1.18,1l-.49.47c-.34.32-.67.65-1,1-.16.18-.33.36-.49.55-.32.37-.63.76-.92,1.16l-.41.54a22,22,0,0,0-1.19,1.87,1.2,1.2,0,0,1-1.75.39,13.85,13.85,0,0,1-1.32-1.11c-.14-.13-.26-.27-.4-.41s-.52-.55-.77-.85-.28-.36-.42-.54-.42-.56-.61-.85-.27-.41-.4-.62-.34-.58-.5-.88l-.34-.68c-.15-.3-.28-.61-.41-.93s-.2-.47-.29-.71-.23-.66-.33-1-.16-.47-.22-.71c-.11-.4-.2-.8-.29-1.2,0-.18-.09-.36-.13-.55h0c-.1-.2-.2-.4-.31-.59.11.19.21.39.31.59-1.06-5.61,0-11.71,3.2-15.71a1.21,1.21,0,0,1,2.15.87c-.34,5,1.31,11.68,6.85,8.38a1.22,1.22,0,0,0,.6-.9c1.33-10.07,8.13-19.8,15.75-26.87a1.21,1.21,0,0,0-.53-2.07c-3.17-.81-7.28-.4-10.49.17a1.21,1.21,0,0,1-.91-2.19,40.23,40.23,0,0,1,17.8-7.06,1.22,1.22,0,0,0,.24-2.36A33.09,33.09,0,0,0,105,15.55h0c-.6,0-1.21.11-1.82.19l-.21,0c-.53.07-1,.15-1.58.24l-.38.06c-.54.1-1.09.2-1.64.32l-.18,0c-.62.14-1.25.29-1.88.46l-.24.06-1.59.46-.46.15c-.5.16-1,.34-1.52.52l-.34.12c-.62.23-1.23.48-1.85.74L91,19c-.51.22-1,.46-1.54.71L89,20c-.46.23-.92.48-1.39.73l-.44.24c-.59.33-1.19.68-1.77,1.05l-.24.16c-.5.32-1,.66-1.5,1l-.51.37c-.43.31-.85.63-1.26,1l-.48.38c-.55.45-1.11.92-1.65,1.41l-.14.13c-.49.45-1,.92-1.45,1.4l-.47.49c-.38.4-.75.8-1.12,1.22-.15.17-.31.34-.45.52q-.75.87-1.47,1.8c-.51.67-1,1.33-1.43,2-.13.19-.26.37-.38.56-.35.52-.69,1-1,1.56-.1.15-.19.3-.28.45-.39.65-.75,1.29-1.1,1.93-.08.14-.15.29-.22.44-.27.51-.52,1-.76,1.52-.09.18-.18.37-.26.55-.28.6-.54,1.21-.78,1.81l0,.07c-.25.62-.48,1.24-.69,1.85-.06.17-.11.34-.17.51q-.24.72-.45,1.44L67,47c-.16.59-.31,1.18-.44,1.76,0,.11-.05.22-.08.33-.1.48-.2,1-.28,1.44,0,.14-.06.28-.08.42-.19,1.15-.33,2.26-.42,3.32,0,.11,0,.22,0,.32,0,.47-.06.94-.08,1.39a1.34,1.34,0,0,1,0,.2c0,.53,0,1,0,1.56Z"/><path class="cls-3" d="M133.29,222.26c1.07-.76,2.11-1.51,3.13-2.26l.7-.51.07-.06c1-.72,1.91-1.43,2.82-2.15.13-.09.25-.19.37-.29.85-.67,1.67-1.33,2.48-2l.57-.48c.87-.72,1.71-1.43,2.53-2.15l.49-.44c.6-.52,1.17-1,1.74-1.57l.36-.32.43-.4c.76-.7,1.48-1.4,2.19-2.1.18-.18.36-.35.53-.53.63-.63,1.25-1.25,1.84-1.87l.28-.29.56-.61c.44-.48.88-1,1.31-1.43.18-.19.35-.39.53-.59v0c.58-.65,1.15-1.31,1.69-1.95l.29-.36.45-.56.9-1.12.51-.65c.47-.61.93-1.22,1.37-1.82l.45-.64c.32-.44.63-.89.93-1.33l.49-.72c.37-.56.73-1.11,1.08-1.66.17-.27.33-.54.49-.81l.35-.58.29-.49c.21-.36.42-.71.62-1.07l.67-1.22.5-.95.21-.43.18-.35c.28-.56.54-1.11.79-1.66l.27-.58c.16-.37.32-.72.47-1.08.05-.11.09-.22.14-.34.29-.7.56-1.39.82-2.07l0-.09.06-.16c.22-.6.42-1.19.61-1.77h0c.19-.58.36-1.16.53-1.72a28.35,28.35,0,0,0-10.51-18,1.28,1.28,0,0,0-2,1.26c2.91,14.82-5.43,41.72-3.56,28.82.93-6.43.57-10.71-.08-13.46a1.29,1.29,0,0,0-2.53.09,75,75,0,0,1-3.66,14.18c-3.43,9.09-1.82-.21-4.24-20C143,154.37,151.9,151.48,156.76,151a1.26,1.26,0,0,0,.73-.32h0c-1.92-1.41-3.79-2.9-5.56-4.46-6.62,1.14-14.16,5-21,9.4C140.15,167.32,143.53,190.38,133.29,222.26Z"/><path class="cls-3" d="M125,139.49a26.22,26.22,0,0,0,16.25-5.26c-.29-.44-.58-.88-.85-1.32h0l-.08-.13h0c-.38-.62-.73-1.23-1.08-1.85a2.12,2.12,0,0,0-.11-.21c-.34-.63-.67-1.27-1-1.91-2.32,2.08-6.2,3.48-12.67,1.58a21.11,21.11,0,0,0-14.59.52,14.76,14.76,0,0,1,6.54,1.85h0l.13.07h0c.26.15.51.3.75.47h0c.23.15.45.32.67.49h0l.13.11h0c.22.17.43.36.62.54h0a5.89,5.89,0,0,1,.54.58h0l0,0a7.34,7.34,0,0,1,.55.73h0c.13.21.25.43.36.65h0l0,.05a5.6,5.6,0,0,1,.33.8h0a5.47,5.47,0,0,1,.16.7h0s0,.06,0,.1a5.55,5.55,0,0,1,.07.82,9.64,9.64,0,0,0-8-3.57c4.63,1.57,9.54,7.65,6.67,13.45-3.73,2.58-7.54,7.83-10.91,13.2,9.45-9.17,26-17.29,26-17.29A28.36,28.36,0,0,1,125,139.49Z"/><path class="cls-3" d="M143,116.3c.72.46,1.47.9,2.23,1.33l.26.14.08,0q1,.54,2,1l.28.14.28.13c.63.3,1.27.57,1.92.84l.37.15.27.11c.84.33,1.71.65,2.59.93,1.2-9.63,6.44-43.42,22.06-54.68a1.63,1.63,0,0,1,2.56,1.16,53.25,53.25,0,0,1,.25,10.65,1.64,1.64,0,0,0,3,1.11c.37-.53.72-1.05,1-1.57.17-.28.32-.55.48-.82s.26-.44.38-.67.39-.73.56-1.1l.05-.09.09-.19c.2-.43.39-.86.56-1.28a53.9,53.9,0,0,0-2-12.53c-20.92,2.42-33.2,29.71-33.2,29.71Z"/><path class="cls-3" d="M60.27,97.19c0,.09,0,.18,0,.27s.05.32.08.48a1.55,1.55,0,0,0,0,.21,3.74,3.74,0,0,0,.17.62v0a3.56,3.56,0,0,0,.24.52l.1.15a3.46,3.46,0,0,0,.22.31l.13.14a2.26,2.26,0,0,0,.29.25.69.69,0,0,0,.13.11,2.54,2.54,0,0,0,.49.26,13.35,13.35,0,0,0,1.35.45l.45.1c.3.07.59.13.88.17s.34,0,.51.06l.78.06h.53c.25,0,.49,0,.73,0l.52,0c.23,0,.46-.06.69-.09l.49-.08.67-.16.45-.11c.34-.1.68-.21,1-.33,2.5-3.07-3.5-8.42.6-19,3.07-7.89.32-9.14-2.22-9h0c-.89,1.46-1.74,3-2.55,4.46l-.06.12c-.19.35-.38.7-.56,1.06l-.06.11c-.57,1.1-1.12,2.21-1.63,3.3l0,0-.43.94-.15.32c-.13.28-.25.57-.38.86l-.15.35c-.12.29-.25.57-.36.85a1.67,1.67,0,0,0-.08.2c-.23.54-.44,1.07-.64,1.6-.06.15-.12.3-.17.45l-.24.66c-.06.18-.13.35-.19.52l-.21.62-.18.56c-.06.19-.12.37-.17.56s-.15.51-.22.76-.12.41-.17.61l-.18.71c0,.15-.06.29-.1.43l-.12.6c0,.14-.05.28-.08.41s-.07.41-.1.6,0,.24,0,.35q-.06.45-.09.87v.12c0,.25,0,.49,0,.73v.27C60.25,96.85,60.26,97,60.27,97.19Z"/><path class="cls-4" d="M115.47,143.58a7,7,0,0,0-1.45-2l.17,4.78-4.7-.25s-2,1.77-5,8c-.15-2.32,3.29-10.1,3.29-10.1l4,.5L111,140a7.38,7.38,0,0,0-.91-.13c-4.8,2.67-9.36,9.83-9.71,22.78a14.69,14.69,0,0,1-.07,1.84C106.18,156.82,117.86,148.36,115.47,143.58Z"/><path class="cls-3" d="M112.87,139.08s-6.67,9-8.28,13.75c7.78-9.4,13.44-9.3,13.44-9.3l-5.16-4.45"/><path class="cls-6" d="M115.67,144.08A39,39,0,0,1,100.48,160c-.07.84-.11,1.71-.14,2.6a14.69,14.69,0,0,1-.07,1.84C106,157.08,117.08,148.93,115.67,144.08Z"/><path class="cls-8" d="M120.93,89.54C123.66,77.72,139,72.24,139,72.24c-16.08-.7-32.16,14-39.84,22.37S84.52,96,84.52,96c-.11,3.13,2.61,9.83,14.36,11.64-2,7.21.35,16.58.35,16.58,2.12-20.11,21.88-33.6,31.83-34.11C127.73,88,120.93,89.54,120.93,89.54Zm-5.76,1.74c-2,3.83-10.91,9.36-10.91,9.36-2.09-2.38.64-7.42,5.42-11.14S117.22,87.46,115.17,91.28ZM70.53,136.5a18.79,18.79,0,0,1,11.92-5.8c3.33,2.38,4.44,6.41,4.79,9.35a.72.72,0,0,1-1.32.48A32.1,32.1,0,0,0,81,134.89c-3.31-.3-7.07,1.33-9.62,2.73A.72.72,0,0,1,70.53,136.5Zm47.92-69.35C124,46.46,135,33,145.92,28.38a1.79,1.79,0,0,1,2,2.81c-8.28,9.72-12.15,26.34-12.15,26.34s7.18,1.41,9.4,6.87c-7.73-2.55-19.21,2-24.59,4.56A1.56,1.56,0,0,1,118.45,67.15Zm90.87,174.59-6.43,0C256.81,184.2,298.94,105.16,307,26.4,277,9.29,217.32,8.34,197.23,8.53a72,72,0,0,0-12.61-5.17C160.06-3,142,2.22,128.91,10.14a1.16,1.16,0,0,1-1,.11C109,3.78,86.23,4.56,68.61,24.38A54,54,0,0,0,55.47,50.6C48.62,56.31,32.34,70.17,21.11,82A213.47,213.47,0,0,0,2.82,104.38,9.41,9.41,0,0,0,7.4,118.73l22.46,7.79c3.31,13,19.07,71.36,49,123.3L68.46,264.4,45.79,242.29,5.51,241.17,6.67,267l25.7,25.19L.12,339l33.28.2h.24l19-23.46L72.21,339H176.69l5.87-34.4-22,.25L179,293.54Zm-184-140.66C32.32,89,49.8,80.19,58.53,76.39c.23.46.47.92.71,1.36A43.09,43.09,0,0,0,54.46,86c-7.07,16.57,2.12,19.6,2.12,19.6s-9.39,21.46-10.81,36.11L39.6,115.08l-10.75-4.17A6.89,6.89,0,0,1,25.29,101.08ZM66.54,156c-2.43,2.22-3.84,9.05-.76,13,8.54-1.82,19.55-19.86,9.3-24.86-6.32,1-14.51,11.11-14.51,11.11a20.59,20.59,0,0,0-3.76,8.3l-1.21-1.1a24.59,24.59,0,0,0,3.86,16.6,7.28,7.28,0,0,1-2.33-.62c-3.17-2.66-6.35-6.21-7.67-10.44a6.38,6.38,0,0,0,4.47,3.26s.45-14.71-7.28-17.82c5.08.23,8.8,8,8.8,8s-.74-9.07-5.23-13.36a5.37,5.37,0,0,1,2.72,1.67S51.83,138.78,56.78,125,63.66,107,63.66,107s10.76,0,13-9.6c0,0-6.75,6.29-14.48,3.18C56,98,65.65,76.84,75.19,64.38A1,1,0,0,0,73.78,63c-2,1.6-4.23,3.48-6.45,5.61-1.4-3.95-5.69-19.7,7.29-36.74,12.77-16.77,33.77-18.33,43.3-15.07a1.22,1.22,0,0,1-.24,2.36,40.23,40.23,0,0,0-17.8,7.06,1.21,1.21,0,0,0,.91,2.19c3.21-.57,7.32-1,10.49-.17a1.21,1.21,0,0,1,.53,2.07c-7.62,7.07-14.42,16.8-15.75,26.87a1.22,1.22,0,0,1-.6.9c-5.54,3.3-7.19-3.42-6.85-8.38a1.21,1.21,0,0,0-2.15-.87c-5.7,7.13-4.63,20.95,3.23,26.74a1.2,1.2,0,0,0,1.75-.39c5.27-9.43,16.18-12.33,21.9-13.21a1.22,1.22,0,0,0,.39-2.28,27.66,27.66,0,0,0-7.18-2.83,1.22,1.22,0,0,1-1-1.35c1.28-10,17.11-31.72,33.87-40.92,13.46-7.39,30.08-4.71,37-3.08a1.21,1.21,0,0,1,.28,2.26A26,26,0,0,0,171.81,17a1.21,1.21,0,0,0,1,2.11c13.08-2.19,27.33,1.68,37.86,14.8,11.45,14.25,24.28,38.58,24.08,73.74s-22.44,44.47-43.86,46.29c-19.12,1.62-33.2-12.48-38.82-20.49a1.22,1.22,0,0,1,1.27-1.89,51,51,0,0,0,15.76,1.14,50.56,50.56,0,0,0,10.26,6.57.73.73,0,0,0,1-1,66.6,66.6,0,0,0-4.11-7,29.89,29.89,0,0,0,9.4-4.61,51.06,51.06,0,0,0,11.29,3.09.73.73,0,0,0,.66-1.21,75,75,0,0,0-7.23-6.49c.15-.19.31-.38.45-.58a3,3,0,0,0-3.86-4.32A42.38,42.38,0,0,1,164.2,123c0-4.24.29-14.18,2.41-20.91a1.63,1.63,0,0,1,3.13.93l-.18.68a1.63,1.63,0,0,0,2.54,1.76,51.78,51.78,0,0,0,10.57-10.58c2.49,3.29,6.69,9.48,8.24,15.63a1.1,1.1,0,0,0,2.15,0,40.75,40.75,0,0,0,.86-5.38c1.72-1.29,5.31-4.47,9.63-11.21a.73.73,0,0,0-.85-1.09A80,80,0,0,0,193.78,97,34.36,34.36,0,0,0,192,89.58a47.35,47.35,0,0,0,8.22-10.06.72.72,0,0,0-.84-1.08,86.47,86.47,0,0,0-10.24,4.87c3.39-8.53,5.12-19.31,3.45-32.82a1.62,1.62,0,0,0-1.53-1.42C164.48,47.89,154,64,150,74a1.63,1.63,0,0,0,2.74,1.67c14.09-15.55,26.8-17.89,30.77-18.24a1.63,1.63,0,0,1,1.7,1.18c.91,3.09,2.46,11.58-4.14,20.81a1.64,1.64,0,0,1-3-1.11,53.25,53.25,0,0,0-.25-10.65,1.63,1.63,0,0,0-2.56-1.16c-15.62,11.26-20.86,45.05-22.06,54.68a43.55,43.55,0,0,1-16-9.2,1.22,1.22,0,0,0-2,.72c-1,7.32,1.43,14.74,6,21.58A26.22,26.22,0,0,1,125,139.49a28.36,28.36,0,0,0,10.62,5.23s-16.55,8.12-26,17.29c3.37-5.37,7.18-10.62,10.91-13.2,2.87-5.8-2-11.88-6.67-13.45a9.64,9.64,0,0,1,8,3.57c0-6.06-10.49-10-15.79-7s-9,8.26-9.93,19-2.58,23.88-13.49,29.79a32.81,32.81,0,0,1-7.84,3.1c-10-1.74-14.21-10.94-14.8-15.73S62.19,158.84,66.54,156Zm64.38-.43c6.85-4.4,14.39-8.26,21-9.4a82.28,82.28,0,0,0,21.17,13.51c1.09,10.4-1.2,35.51-39.81,62.57C143.53,190.38,140.15,167.32,130.92,155.58Zm-21.43-9.47,4.7.25-.17-4.78a7,7,0,0,1,1.45,2c2.39,4.78-9.29,13.24-15.2,20.89a14.69,14.69,0,0,0,.07-1.84c.35-12.95,4.91-20.11,9.71-22.78a7.38,7.38,0,0,1,.91.13l.8,4.51-4-.5s-3.44,7.78-3.29,10.1C107.52,147.88,109.49,146.11,109.49,146.11ZM88.34,242.27A444.73,444.73,0,0,1,64.07,189.2l.7.31c1.23-.07,2.4-.18,3.55-.3a54.15,54.15,0,0,0,15.37.51c4,9.32,19.1,42.23,38,52.4Zm82-.36-45.53.2c38.35-17.77,71.52-60.49,81.3-80.09,18.48-6,36.53-23.56,40.11-50.42,3.06-23-3.68-54.39-20.79-78,11.32-1.06,44.16-3.22,57.47,5.87-12.58-2-20.16.45-20.16.45S275.93,45.5,279.11,51C278.86,68.73,249.89,165.38,170.34,241.91Z"/><path class="cls-4" d="M186.61,249.6,95,249.94,72.88,279.26,43.56,249.94H16.08v15.64L43,292.37,14.93,330.43H29.76l22.08-29.2,29.32,29.2h26l63.56.3L174.12,311l-38,2.19,44.34-37.13Zm-78.49,64.9L81.62,288l28.17-35.19V269l40.2,4.69Z"/><path class="cls-9" d="M189.78,272.3a9.61,9.61,0,0,1,0-7.3c1.55-4.16,3.18-8.27,4.82-12.39a14.62,14.62,0,0,1,6.87-7.54c2.18-1.18,4.48-2.15,6.74-3.18a3.06,3.06,0,0,1,1.25-.18l33.78,0a2.12,2.12,0,0,1,1.75.74c.75.83,1.57,1.6,2.46,2.49.35-.86.7-1.62,1-2.41a1.07,1.07,0,0,1,1.2-.82c4.53,0,9.07,0,13.6,0H307c-.75,1.88-1.42,3.59-2.1,5.3q-3.66,9.18-7.32,18.36a1,1,0,0,1-1.14.77c-1.51-.05-3,0-4.43,0a30.5,30.5,0,0,1,2.46,3.78,10.9,10.9,0,0,1,0,8.86q-2.93,7.51-6,15c-1.64,4-4.69,6.67-8.34,8.75A20.2,20.2,0,0,1,270,305.13q-20.91,0-41.81,0-18.63,0-37.25,0a2.67,2.67,0,0,1-2.08-.83c-3.28-3.29-6.61-6.55-9.95-9.8a1.07,1.07,0,0,1-.32-1.33c1.76-4.66,3.52-9.32,5.2-14a12.39,12.39,0,0,1,5.15-6.3Z"/><path class="cls-4" d="M246,253.16c-2.34-2.3-4.64-4.65-7-6.95a2,2,0,0,0-1.26-.5c-9.21,0-18.43,0-27.65,0a2.53,2.53,0,0,0-1.07.16c-2.18,1.05-4.39,2.06-6.51,3.25a9.3,9.3,0,0,0-4.1,4.74c-1.46,3.61-2.93,7.21-4.34,10.83a22.17,22.17,0,0,0-1,3.41,4.56,4.56,0,0,0,2.49,4.85c.51.24,1.08.38,1.71.6l-.81.3c-1.22.46-2.47.86-3.65,1.42-2.42,1.14-4.44,2.68-5.39,5.37-1.36,3.9-2.84,7.76-4.3,11.62a.93.93,0,0,0,.29,1.18c2.46,2.4,4.89,4.83,7.36,7.21a1.87,1.87,0,0,0,1.18.49c9.19,0,18.38.06,27.57,0a10.51,10.51,0,0,0,4.29-1,15.42,15.42,0,0,0,7.71-8.29c1.45-3.41,3-6.81,4.18-10.3,1-2.94.31-6.38-3.06-7.7l-1.75-.7a21.52,21.52,0,0,0,3-.76,15.34,15.34,0,0,0,8.56-8.52c1.35-3.09,2.52-6.25,3.8-9.37A1,1,0,0,0,246,253.16ZM216.86,281c-1.13,2.79-2.24,5.59-3.4,8.36-.12.3-.49.7-.74.7-4.78.05-9.55,0-14.41-.14l1.51-.82c1.17-.63,2.38-1.22,3.51-1.93a3,3,0,0,0,1.12-1.3c.9-2.16,1.69-4.36,2.57-6.53a1.11,1.11,0,0,1,.79-.63c3.16,0,6.33,0,9.49,0a4.07,4.07,0,0,1,.43.07C217.43,279.54,217.15,280.27,216.86,281Zm14.7-23.74c-2.09,1-4.2,2-6.28,3.1a2,2,0,0,0-.87.95c-.92,2.21-1.76,4.45-2.67,6.67-.11.27-.46.64-.71.64-3.15,0-6.31,0-9.66,0,.95-2.53,1.85-4.91,2.75-7.29.5-1.33,1-2.68,1.52-4,.1-.24.43-.56.65-.56,5.26,0,10.51,0,16,0A7.64,7.64,0,0,1,231.56,257.26Z"/><path class="cls-4" d="M297.07,245.69c-1.19,3-2.33,5.81-3.46,8.65-.94,2.34-1.87,4.69-2.8,7-.16.4-.27.74-.86.74-5.05,0-10.1,0-15.15,0a2.19,2.19,0,0,1-.39-.06c.4-1.48.79-2.83,2.56-3.3a15.14,15.14,0,0,0,3.62-1.72l-.49,0c-4.53,0-9.06,0-13.6,0a1.07,1.07,0,0,0-1.2.8c-1.19,3.06-2.42,6.1-3.64,9.15-.1.24-.16.5-.29.88h5.19c4.47,0,8.95,0,13.42,0a11.83,11.83,0,0,1,2.45.23c3.73.83,5.68,4.14,4.61,8a53.48,53.48,0,0,1-2,5.29c-1.22,3.11-2.6,6.17-3.69,9.33-1.43,4.17-4.34,6.86-8.15,8.77a15.39,15.39,0,0,1-7.12,1.68H230.66c.36-.93.68-1.74,1-2.55,1.83-4.57,3.65-9.15,5.51-13.71a1.11,1.11,0,0,1,.78-.63c5.69,0,11.38,0,17.22,0-.46,1.13-.58,2.26-1.88,2.83-1.8.8-3.5,1.8-5.46,2.83a7.71,7.71,0,0,0,.8.11h13.79c.45,0,.79,0,1-.56,1.39-3.59,2.82-7.18,4.23-10.77a3.13,3.13,0,0,0,.12-.52H238.4c.86-2.14,1.66-4.17,2.47-6.19,3.39-8.46,6.8-16.92,10.17-25.39a1.17,1.17,0,0,1,1.3-.9q22,0,43.92,0Z"/></svg>