<svg id="Capa_1" data-name="Capa 1" xmlns="http://www.w3.org/2000/svg" viewBox="0 0 338 116"><defs><style>.cls-1{fill:#fff;}.cls-2{fill:#f5333f;}</style></defs><title>logo</title><path d="M208.14,92.07l-1.53,2.68h-6.09l4.57-6.1-4.57-6.09h6.09l1.53,2.67,1.52-2.67h6.09l-4.57,6.09,4.57,6.1h-6.09Z"/><path d="M248.38,93.23l-.24,1.52H242l3.05-12.19h9.14l3,12.19h-6.09l-.25-1.52Zm2.08-3-.8-5-.79,5Z"/><path d="M297.28,82.56v5.33l-3,.76,3,.77v5.33H283.57V82.56Zm-7.61,3v1.52h1.52V85.61Zm0,6.09h1.52V90.18h-1.52Z"/><path d="M330.32,82.56V94.75h-6.71V82.56Z"/><path d="M200.55,110.35v-5.86l8.39-2.94V100.3h-1.68V102h-6.71v-5h15.09v5.87l-8.38,2.93V107h1.68v-1.68h6.7v5Z"/><path d="M217.78,110.35V96.94h6.71V107h1.67V96.94h6.71v13.41Z"/><path d="M243.39,105.32h-1.67v5H235V96.94H250.1v5.87l-3.36.84,3.36.84v5.86h-6.71Zm-1.67-5V102h1.67V100.3Z"/><path d="M252.24,110.35V96.94h6.7V107h1.68V96.94h6.7v13.41Z"/><path d="M279.52,100.3v10h-6.7v-10h-3.35V96.94h13.41v3.36Z"/><path d="M285,110.35V96.94h6.7V107h1.68V96.94h6.7v13.41Z"/><path d="M302.25,110.35v-5.86l8.38-2.94V100.3H309V102h-6.7v-5h15.08v5.87L309,105.74V107h1.68v-1.68h6.7v5Z"/><path d="M326.45,108.68l-.27,1.67h-6.71l3.36-13.41h10.05l3.36,13.41h-6.71l-.27-1.67Zm2.28-3.36-.88-5.44-.87,5.44Z"/><polygon points="196.16 61.26 196.29 61.19 229.32 4.02 92.52 5 92.26 5 75 29.3 50.23 5.15 50.09 5.01 5.96 3.78 7.23 32 35.45 59.66 0.08 111.01 36.51 111.22 36.75 111.22 57.67 85.45 78.98 110.91 79.13 111.09 193.73 111.09 199.78 75.61 171.96 73.57 196.16 61.26"/><path class="cls-1" d="M204.66,13l-100.58.38L79.85,45.54,47.67,13.36H17.51V30.52L47,59.92l-30.8,41.77H32.52l24.23-32,32.18,32.05h28.48l69.76.33L191,80.38l-41.74,2.4,45.3-42.44ZM118.52,84.21,89.44,55.13l30.92-38.62V34.22l44.11,5.15Z"/><path class="cls-2" d="M208.27,37.89a10.49,10.49,0,0,1,0-8c1.69-4.56,3.49-9.08,5.28-13.6A16.07,16.07,0,0,1,221.05,8c2.39-1.29,4.92-2.36,7.4-3.49a3.48,3.48,0,0,1,1.37-.2q18.54,0,37.07,0a2.36,2.36,0,0,1,1.93.81c.82.91,1.72,1.76,2.69,2.74.39-1,.78-1.78,1.06-2.65a1.16,1.16,0,0,1,1.32-.89c5,0,9.95,0,14.92,0h48.11c-.82,2.06-1.55,3.94-2.3,5.82q-4,10.08-8,20.15a1.12,1.12,0,0,1-1.26.84c-1.65-.05-3.31,0-4.86,0a32.68,32.68,0,0,1,2.71,4.14,12,12,0,0,1,0,9.73q-3.21,8.24-6.56,16.43c-1.8,4.37-5.15,7.31-9.16,9.59a22,22,0,0,1-11.18,2.93q-23,0-45.89,0-20.43,0-40.87,0a2.9,2.9,0,0,1-2.28-.91c-3.61-3.62-7.26-7.19-10.92-10.76a1.16,1.16,0,0,1-.36-1.46c1.93-5.11,3.86-10.23,5.7-15.37a13.67,13.67,0,0,1,5.65-6.92Z"/><path class="cls-1" d="M216.51,39.25c-.7-.25-1.32-.4-1.88-.67a5,5,0,0,1-2.73-5.32A23.17,23.17,0,0,1,213,29.52c1.54-4,3.16-7.92,4.75-11.88a10.22,10.22,0,0,1,4.51-5.2c2.32-1.31,4.75-2.42,7.14-3.58a2.85,2.85,0,0,1,1.17-.17q15.18,0,30.36,0a2.13,2.13,0,0,1,1.37.56c2.58,2.51,5.11,5.09,7.68,7.62a1.1,1.1,0,0,1,.3,1.39c-1.4,3.42-2.68,6.9-4.17,10.29a16.88,16.88,0,0,1-9.39,9.35,25.47,25.47,0,0,1-3.29.83l1.92.77c3.7,1.45,4.49,5.23,3.36,8.45-1.35,3.84-3,7.56-4.59,11.31a16.9,16.9,0,0,1-8.47,9.09,11.51,11.51,0,0,1-4.71,1.12c-10.08.1-20.16.06-30.25,0a2.09,2.09,0,0,1-1.29-.53c-2.72-2.62-5.38-5.29-8.09-7.92a1,1,0,0,1-.31-1.29c1.6-4.24,3.22-8.48,4.72-12.75,1-3,3.26-4.65,5.92-5.9,1.29-.61,2.67-1.05,4-1.56ZM232,33.89c3.68,0,7.14,0,10.61,0,.26,0,.65-.4.77-.7,1-2.44,1.93-4.9,2.93-7.33a2.23,2.23,0,0,1,.95-1c2.29-1.17,4.6-2.27,6.9-3.4a9.26,9.26,0,0,0,.83-.53c-6.06,0-11.82,0-17.58,0a1.07,1.07,0,0,0-.73.61c-.59,1.45-1.11,2.93-1.67,4.39C234,28.5,233,31.11,232,33.89Zm7,11.1a3.63,3.63,0,0,0-.47-.09c-3.47,0-6.95,0-10.42,0a1.24,1.24,0,0,0-.87.69c-1,2.38-1.83,4.8-2.81,7.17a3.28,3.28,0,0,1-1.23,1.43c-1.24.78-2.57,1.42-3.86,2.11l-1.65.9c5.33.2,10.57.21,15.81.16.28,0,.68-.44.82-.77,1.27-3,2.49-6.11,3.72-9.18C238.3,46.65,238.61,45.84,238.94,45Z"/><path class="cls-1" d="M326,8.69l-3.8,9.5-3.06,7.71c-.18.44-.3.82-.95.81-5.54,0-11.09,0-16.63,0a2.81,2.81,0,0,1-.42-.07c.44-1.63.86-3.1,2.8-3.62a16.72,16.72,0,0,0,4-1.88,4.55,4.55,0,0,0-.52,0c-5,0-10,0-14.93,0a1.17,1.17,0,0,0-1.32.88c-1.3,3.36-2.66,6.69-4,10-.1.27-.18.55-.31,1h5.69c4.91,0,9.82,0,14.73,0a12.68,12.68,0,0,1,2.68.25c4.1.91,6.24,4.54,5.06,8.83a58.68,58.68,0,0,1-2.16,5.8c-1.35,3.41-2.86,6.77-4,10.23-1.58,4.58-4.77,7.54-9,9.64A17.16,17.16,0,0,1,292,69.55h-38.9c.4-1,.74-1.92,1.1-2.81,2-5,4-10,6-15a1.27,1.27,0,0,1,.86-.69c6.24,0,12.49,0,18.9,0-.5,1.24-.64,2.47-2.07,3.11-2,.87-3.84,2-6,3.1.46.06.67.12.87.12H288c.5,0,.87,0,1.09-.61,1.53-4,3.1-7.88,4.65-11.83a4.57,4.57,0,0,0,.13-.57H261.63l2.71-6.79c3.72-9.29,7.46-18.57,11.15-27.87a1.3,1.3,0,0,1,1.44-1q24.09,0,48.19,0Z"/></svg>